<svg xmlns="http://www.w3.org/2000/svg" xmlns:xlink="http://www.w3.org/1999/xlink" width="794" zoomAndPan="magnify" viewBox="0 0 595.5 842.249979" height="1123" preserveAspectRatio="xMidYMid meet" version="1.0"><defs><g/><clipPath id="6e84c75f2f"><path d="M 0.0273438 0.539062 L 448.90625 0.539062 L 448.90625 468.601562 L 0.0273438 468.601562 Z M 0.0273438 0.539062 " clip-rule="nonzero"/></clipPath><clipPath id="e0822209ce"><path d="M 0.0273438 356 L 448.90625 356 L 448.90625 468.601562 L 0.0273438 468.601562 Z M 0.0273438 356 " clip-rule="nonzero"/></clipPath><clipPath id="64d540d726"><rect x="0" width="449" y="0" height="113"/></clipPath><clipPath id="ff96db8c2c"><path d="M 88.785156 0.539062 L 353.367188 0.539062 L 353.367188 303 L 88.785156 303 Z M 88.785156 0.539062 " clip-rule="nonzero"/></clipPath><clipPath id="a9ec1ad239"><rect x="0" width="449" y="0" height="469"/></clipPath><clipPath id="6bdef9b299"><rect x="0" width="449" y="0" height="469"/></clipPath></defs><g transform="matrix(1, 0, 0, 1, 76, 157)"><g clip-path="url(#6bdef9b299)"><g clip-path="url(#6e84c75f2f)"><g><g clip-path="url(#a9ec1ad239)"><g clip-path="url(#e0822209ce)"><g transform="matrix(1, 0, 0, 1, 0, 356)"><g clip-path="url(#64d540d726)"><g fill="#4b8c3b" fill-opacity="1"><g transform="translate(1.31714, 92.640776)"><g><path d="M 78.703125 -59.96875 L 78.703125 -44.984375 C 78.703125 -42.234375 78.03125 -39.71875 76.6875 -37.4375 C 75.351562 -35.15625 73.546875 -33.34375 71.265625 -32 C 68.984375 -30.65625 66.46875 -29.984375 63.71875 -29.984375 L 48.71875 -29.984375 L 63.71875 -15 L 78.703125 -15 L 78.703125 0 L 60.71875 0 C 58.59375 0 56.78125 -0.75 55.28125 -2.25 L 27.546875 -29.984375 L 18.734375 -29.984375 L 18.734375 0 L 3.75 0 L 3.75 -74.96875 L 63.71875 -74.96875 C 66.46875 -74.96875 68.984375 -74.296875 71.265625 -72.953125 C 73.546875 -71.609375 75.351562 -69.796875 76.6875 -67.515625 C 78.03125 -65.234375 78.703125 -62.71875 78.703125 -59.96875 Z M 63.71875 -59.96875 L 18.734375 -59.96875 L 18.734375 -44.984375 L 63.71875 -44.984375 Z M 63.71875 -59.96875 "/></g></g></g><g fill="#4b8c3b" fill-opacity="1"><g transform="translate(90.787583, 92.640776)"><g><path d="M 18.734375 -74.96875 L 63.71875 -74.96875 C 66.46875 -74.96875 68.984375 -74.296875 71.265625 -72.953125 C 73.546875 -71.609375 75.351562 -69.796875 76.6875 -67.515625 C 78.03125 -65.234375 78.703125 -62.71875 78.703125 -59.96875 L 78.703125 0 L 63.71875 0 L 63.71875 -29.984375 L 18.734375 -29.984375 L 18.734375 0 L 3.75 0 L 3.75 -59.96875 C 3.75 -62.71875 4.421875 -65.234375 5.765625 -67.515625 C 7.109375 -69.796875 8.921875 -71.609375 11.203125 -72.953125 C 13.484375 -74.296875 15.992188 -74.96875 18.734375 -74.96875 Z M 18.734375 -59.96875 L 18.734375 -44.984375 L 63.71875 -44.984375 L 63.71875 -59.96875 Z M 18.734375 -59.96875 "/></g></g></g><g fill="#4b8c3b" fill-opacity="1"><g transform="translate(180.258025, 92.640776)"><g><path d="M 63.71875 0 L 3.75 0 L 3.75 -74.96875 L 63.71875 -74.96875 C 66.46875 -74.96875 68.984375 -74.296875 71.265625 -72.953125 C 73.546875 -71.609375 75.351562 -69.796875 76.6875 -67.515625 C 78.03125 -65.234375 78.703125 -62.71875 78.703125 -59.96875 L 78.703125 -15 C 78.703125 -12.25 78.03125 -9.734375 76.6875 -7.453125 C 75.351562 -5.171875 73.546875 -3.359375 71.265625 -2.015625 C 68.984375 -0.671875 66.46875 0 63.71875 0 Z M 18.734375 -59.96875 L 18.734375 -15 L 63.71875 -15 L 63.71875 -59.96875 Z M 18.734375 -59.96875 "/></g></g></g><g fill="#4b8c3b" fill-opacity="1"><g transform="translate(269.728468, 92.640776)"><g><path d="M 78.703125 -74.96875 L 78.703125 -59.96875 L 18.734375 -59.96875 L 18.734375 -44.984375 L 78.703125 -44.984375 L 78.703125 -29.984375 L 18.734375 -29.984375 L 18.734375 -15 L 78.703125 -15 L 78.703125 0 L 18.734375 0 C 15.992188 0 13.484375 -0.671875 11.203125 -2.015625 C 8.921875 -3.359375 7.109375 -5.171875 5.765625 -7.453125 C 4.421875 -9.734375 3.75 -12.25 3.75 -15 L 3.75 -59.96875 C 3.75 -62.71875 4.421875 -65.234375 5.765625 -67.515625 C 7.109375 -69.796875 8.921875 -71.609375 11.203125 -72.953125 C 13.484375 -74.296875 15.992188 -74.96875 18.734375 -74.96875 Z M 78.703125 -74.96875 "/></g></g></g><g fill="#4b8c3b" fill-opacity="1"><g transform="translate(359.198911, 92.640776)"><g><path d="M 18.734375 0 L 3.75 0 L 3.75 -67.46875 C 3.75 -69.53125 4.484375 -71.296875 5.953125 -72.765625 C 7.421875 -74.234375 9.1875 -74.96875 11.25 -74.96875 C 13.3125 -74.96875 15.085938 -74.21875 16.578125 -72.71875 L 63.71875 -25.578125 L 63.71875 -74.96875 L 78.703125 -74.96875 L 78.703125 -7.5 C 78.703125 -5.4375 77.96875 -3.671875 76.5 -2.203125 C 75.039062 -0.734375 73.28125 0 71.21875 0 C 69.15625 0 67.375 -0.75 65.875 -2.25 L 18.734375 -49.375 Z M 18.734375 0 "/></g></g></g></g></g></g><path fill="#3a6430" d="M 307.53125 102.03125 C 306.992188 101.042969 306.289062 100.066406 304.816406 99.324219 L 283.796875 87.183594 C 283.507812 87.019531 283.199219 86.890625 282.867188 86.808594 C 282.761719 86.785156 282.660156 86.785156 282.542969 86.765625 C 282.328125 86.730469 282.109375 86.6875 281.890625 86.691406 L 281.847656 86.6875 L 281.847656 86.699219 C 281.226562 86.710938 280.617188 86.878906 280.078125 87.1875 L 232.789062 114.492188 L 232.746094 114.410156 L 228.929688 116.617188 C 224.328125 119.273438 218.667969 119.273438 214.0625 116.617188 L 193.386719 104.683594 C 192.242188 104.019531 191.535156 102.792969 191.535156 101.464844 C 191.535156 100.136719 192.242188 98.910156 193.386719 98.246094 L 214.0625 86.316406 C 218.667969 83.660156 224.328125 83.660156 228.929688 86.316406 L 233.90625 89.191406 C 235.058594 89.851562 236.46875 89.851562 237.617188 89.191406 L 256.871094 78.078125 C 258.023438 77.414062 258.730469 76.1875 258.730469 74.859375 C 258.730469 73.53125 258.023438 72.304688 256.871094 71.640625 L 228.929688 55.503906 C 224.328125 52.851562 218.667969 52.851562 214.0625 55.503906 L 145.609375 95.027344 C 140.65625 97.890625 140.65625 105.039062 145.609375 107.898438 L 214.0625 147.421875 C 218.667969 150.078125 224.328125 150.078125 228.929688 147.421875 L 281.847656 116.867188 L 281.847656 186.46875 L 264.847656 196.320312 L 228.929688 217.117188 C 227.789062 217.769531 226.578125 218.269531 225.3125 218.609375 C 221.515625 219.617188 217.472656 219.078125 214.0625 217.117188 L 164.855469 188.707031 C 162.554688 187.382812 161.136719 184.925781 161.140625 182.269531 L 161.140625 141.699219 C 161.140625 140.371094 160.429688 139.136719 159.28125 138.484375 L 140.035156 127.359375 C 138.882812 126.695312 137.46875 126.695312 136.316406 127.359375 C 135.167969 128.023438 134.460938 129.257812 134.460938 130.585938 L 134.460938 197.675781 C 134.460938 200.332031 135.875 202.777344 138.175781 204.117188 L 214.0625 247.929688 C 216.292969 249.21875 218.820312 249.890625 221.394531 249.910156 L 221.445312 249.910156 C 221.808594 249.910156 222.171875 249.871094 222.535156 249.847656 C 222.8125 249.828125 223.09375 249.828125 223.375 249.796875 C 223.757812 249.746094 224.140625 249.652344 224.515625 249.578125 C 224.773438 249.519531 225.03125 249.488281 225.28125 249.425781 C 225.695312 249.320312 226.089844 249.164062 226.484375 249.019531 C 226.710938 248.9375 226.929688 248.886719 227.136719 248.800781 C 227.75 248.554688 228.351562 248.261719 228.921875 247.929688 L 294.394531 210.128906 L 304.773438 204.238281 C 307.097656 202.921875 308.539062 200.457031 308.539062 197.78125 L 308.539062 105.753906 C 308.539062 104.425781 308.175781 103.144531 307.53125 102.03125 " fill-opacity="1" fill-rule="nonzero"/><g clip-path="url(#ff96db8c2c)"><path fill="#4b8c3b" d="M 228.742188 33.277344 C 226.535156 32.007812 224.046875 31.328125 221.496094 31.300781 C 218.957031 31.328125 216.457031 32.007812 214.25 33.277344 L 122.804688 86.074219 C 118.21875 88.722656 115.394531 93.617188 115.394531 98.914062 L 115.394531 204.511719 C 115.390625 209.8125 118.21875 214.703125 122.804688 217.347656 L 214.25 270.144531 C 216.488281 271.4375 219.019531 272.125 221.601562 272.132812 C 224.183594 272.125 226.722656 271.4375 228.960938 270.152344 L 320.003906 217.585938 C 324.585938 214.941406 327.417969 210.050781 327.417969 204.75 L 327.417969 174.238281 C 327.40625 172.910156 328.121094 171.6875 329.261719 171.023438 L 348.652344 159.835938 C 349.792969 159.171875 351.210938 159.171875 352.351562 159.835938 C 353.503906 160.5 354.207031 161.722656 354.207031 163.050781 L 354.207031 219.878906 C 354.199219 222.304688 353.597656 224.6875 352.457031 226.824219 C 352.167969 228.226562 350.640625 229.875 348.484375 231.5625 C 348.445312 231.605469 348.382812 231.644531 348.328125 231.6875 C 342.855469 235.949219 333.792969 240.34375 332.1875 241.277344 L 228.960938 300.875 C 226.648438 302.203125 224.015625 302.886719 221.351562 302.855469 L 221.238281 302.855469 L 221.238281 302.84375 C 218.78125 302.78125 216.375 302.097656 214.25 300.875 L 96.199219 232.714844 C 91.609375 230.070312 88.785156 225.175781 88.785156 219.878906 L 88.785156 83.558594 C 88.785156 81.175781 89.085938 78.753906 90.128906 76.699219 C 90.273438 76.167969 91.703125 73.550781 94.652344 71.394531 C 95.765625 70.648438 97.726562 69.640625 99.566406 68.578125 L 213.917969 2.558594 C 216.21875 1.234375 218.84375 0.550781 221.496094 0.582031 C 224.164062 0.550781 226.773438 1.230469 229.078125 2.558594 L 334.59375 63.472656 C 334.832031 63.617188 335.019531 63.792969 335.226562 63.960938 L 336.5625 64.726562 C 340.152344 66.628906 345.769531 69.527344 348.820312 71.84375 L 349.066406 72.03125 C 349.109375 72.0625 349.148438 72.089844 349.191406 72.121094 C 349.296875 72.207031 349.367188 72.296875 349.472656 72.390625 C 350.589844 73.328125 351.546875 74.425781 352.28125 75.65625 C 352.300781 75.671875 352.3125 75.695312 352.332031 75.714844 L 352.324219 75.71875 C 353.558594 77.777344 354.210938 80.128906 354.210938 82.527344 L 354.210938 132.441406 C 354.210938 133.769531 353.503906 134.992188 352.355469 135.65625 L 332.964844 146.855469 C 331.824219 147.507812 330.40625 147.507812 329.265625 146.855469 C 328.113281 146.191406 327.410156 144.96875 327.410156 143.640625 L 327.410156 98.625 C 327.410156 93.324219 324.578125 88.425781 319.984375 85.78125 L 228.746094 33.277344 L 228.746094 33.28125 Z M 228.742188 33.277344 " fill-opacity="1" fill-rule="nonzero"/></g></g></g></g></g></g></svg>